# xmcd
#
# Track frame offsets: 
#        182
#        14922
#        32775
#        48295
#        66700
#        83085
#        96670
#        110957
#        125230
#        140317
#
# Disc length: 2087 seconds
#
# Revision: 2
# Processed by: cddbd v1.5.2PL0 Copyright (c) Steve Scherf et al.
# Submitted via: ExactAudioCopy v0.99pb5
#
DISCID=9f08250a
DTITLE=Joel Nava - Joel Nava
DYEAR=1995
DGENRE=Latin
TTITLE0=You Can
TTITLE1=Tu Amor Es Para Mí
TTITLE2=¿Para Qué?
TTITLE3=I Do
TTITLE4=Abrázame
TTITLE5=Ya Me Ando Preparando
TTITLE6=Eternal Flame
TTITLE7=Four-Letter Word
TTITLE8=Give Me All The Pieces
TTITLE9=Ella
EXTD=
EXTT0=
EXTT1=
EXTT2=
EXTT3=
EXTT4=
EXTT5=
EXTT6=
EXTT7=
EXTT8=
EXTT9=
PLAYORDER=
